<svg xmlns="http://www.w3.org/2000/svg" xmlns:xlink="http://www.w3.org/1999/xlink" width="1920" zoomAndPan="magnify" viewBox="0 0 1440 809.999993" height="1080" preserveAspectRatio="xMidYMid meet" version="1.0"><defs><g/></defs><rect x="-144" width="1728" fill="#ffffff" y="-80.999999" height="971.999992" fill-opacity="1"/><rect x="-144" width="1728" fill="#ffffff" y="-80.999999" height="971.999992" fill-opacity="1"/><g fill="#000000" fill-opacity="1"><g transform="translate(235.11745, 467.873721)"><g><path d="M 65.828125 -102.609375 L 65.828125 0 L 37.53125 0 L 37.53125 -102.609375 L 0.9375 -102.609375 L 0.9375 -128.265625 L 102.421875 -128.265625 L 102.421875 -102.609375 Z M 65.828125 -102.609375 "/></g></g></g><g fill="#000000" fill-opacity="1"><g transform="translate(376.206902, 467.873721)"><g><path d="M 110.34375 -64.328125 C 110.34375 -70.984375 108.582031 -77.171875 105.0625 -82.890625 C 101.539062 -88.617188 96.921875 -93.242188 91.203125 -96.765625 C 85.484375 -100.285156 79.289062 -102.046875 72.625 -102.046875 C 66.082031 -102.046875 59.914062 -100.285156 54.125 -96.765625 C 48.34375 -93.242188 43.691406 -88.617188 40.171875 -82.890625 C 36.648438 -77.171875 34.890625 -70.984375 34.890625 -64.328125 C 34.890625 -57.785156 36.648438 -51.617188 40.171875 -45.828125 C 43.691406 -40.046875 48.34375 -35.363281 54.125 -31.78125 C 59.914062 -28.195312 66.082031 -26.40625 72.625 -26.40625 C 79.289062 -26.40625 85.484375 -28.195312 91.203125 -31.78125 C 96.921875 -35.363281 101.539062 -40.046875 105.0625 -45.828125 C 108.582031 -51.617188 110.34375 -57.785156 110.34375 -64.328125 Z M 138.640625 -64.125 C 138.640625 -55.320312 136.878906 -46.925781 133.359375 -38.9375 C 129.835938 -30.957031 125.023438 -23.914062 118.921875 -17.8125 C 112.828125 -11.71875 105.816406 -6.910156 97.890625 -3.390625 C 89.972656 0.128906 81.550781 1.890625 72.625 1.890625 C 63.820312 1.890625 55.425781 0.128906 47.4375 -3.390625 C 39.457031 -6.910156 32.414062 -11.71875 26.3125 -17.8125 C 20.21875 -23.914062 15.410156 -30.957031 11.890625 -38.9375 C 8.367188 -46.925781 6.609375 -55.320312 6.609375 -64.125 C 6.609375 -73.0625 8.367188 -81.488281 11.890625 -89.40625 C 15.410156 -97.332031 20.21875 -104.34375 26.3125 -110.4375 C 32.414062 -116.539062 39.457031 -121.351562 47.4375 -124.875 C 55.425781 -128.394531 63.820312 -130.15625 72.625 -130.15625 C 81.550781 -130.15625 89.972656 -128.394531 97.890625 -124.875 C 105.816406 -121.351562 112.828125 -116.539062 118.921875 -110.4375 C 125.023438 -104.34375 129.835938 -97.332031 133.359375 -89.40625 C 136.878906 -81.488281 138.640625 -73.0625 138.640625 -64.125 Z M 138.640625 -64.125 "/></g></g></g><g fill="#000000" fill-opacity="1"><g transform="translate(559.170529, 467.873721)"><g><path d="M 39.609375 -45.828125 L 39.609375 0 L 11.3125 0 L 11.3125 -128.265625 L 59.421875 -128.265625 C 66.335938 -128.265625 72.78125 -126.535156 78.75 -123.078125 C 84.71875 -119.617188 89.523438 -114.804688 93.171875 -108.640625 C 96.828125 -102.484375 98.65625 -95.316406 98.65625 -87.140625 C 98.65625 -78.460938 96.828125 -71.039062 93.171875 -64.875 C 89.523438 -58.71875 84.71875 -54.003906 78.75 -50.734375 C 72.78125 -47.460938 66.335938 -45.828125 59.421875 -45.828125 Z M 54.703125 -106 L 39.609375 -106 L 39.609375 -68.09375 L 54.703125 -68.09375 C 58.847656 -68.09375 62.710938 -69.726562 66.296875 -73 C 69.878906 -76.269531 71.671875 -80.984375 71.671875 -87.140625 C 71.671875 -93.054688 69.878906 -97.675781 66.296875 -101 C 62.710938 -104.332031 58.847656 -106 54.703125 -106 Z M 54.703125 -106 "/></g></g></g><g fill="#000000" fill-opacity="1"><g transform="translate(698.373605, 467.873721)"><g><path d="M 45.078125 -128.265625 L 45.078125 0 L 16.78125 0 L 16.78125 -94.6875 L 1.890625 -94.6875 L 1.890625 -114.125 Z M 45.078125 -128.265625 "/></g></g></g><g fill="#000000" fill-opacity="1"><g transform="translate(792.49603, 467.873721)"><g><path d="M 58.09375 -104.5 C 53.570312 -104.5 49.800781 -103.175781 46.78125 -100.53125 C 43.757812 -97.894531 41.367188 -94.5 39.609375 -90.34375 C 37.847656 -86.195312 36.617188 -81.765625 35.921875 -77.046875 C 35.234375 -72.335938 34.890625 -67.96875 34.890625 -63.9375 C 34.890625 -59.539062 35.234375 -54.984375 35.921875 -50.265625 C 36.617188 -45.546875 37.847656 -41.144531 39.609375 -37.0625 C 41.367188 -32.976562 43.757812 -29.675781 46.78125 -27.15625 C 49.800781 -24.644531 53.570312 -23.390625 58.09375 -23.390625 C 62.625 -23.390625 66.363281 -24.644531 69.3125 -27.15625 C 72.269531 -29.675781 74.628906 -32.976562 76.390625 -37.0625 C 78.148438 -41.144531 79.40625 -45.515625 80.15625 -50.171875 C 80.914062 -54.828125 81.296875 -59.289062 81.296875 -63.5625 C 81.296875 -67.71875 80.945312 -72.148438 80.25 -76.859375 C 79.5625 -81.578125 78.367188 -86.039062 76.671875 -90.25 C 74.972656 -94.46875 72.613281 -97.894531 69.59375 -100.53125 C 66.582031 -103.175781 62.75 -104.5 58.09375 -104.5 Z M 58.09375 2.265625 C 50.675781 2.265625 44.132812 0.851562 38.46875 -1.96875 C 32.8125 -4.800781 27.972656 -8.578125 23.953125 -13.296875 C 19.929688 -18.015625 16.628906 -23.265625 14.046875 -29.046875 C 11.472656 -34.828125 9.585938 -40.703125 8.390625 -46.671875 C 7.203125 -52.648438 6.609375 -58.34375 6.609375 -63.75 C 6.609375 -68.40625 7.140625 -73.65625 8.203125 -79.5 C 9.273438 -85.351562 11.003906 -91.234375 13.390625 -97.140625 C 15.773438 -103.046875 18.976562 -108.484375 23 -113.453125 C 27.03125 -118.421875 31.9375 -122.445312 37.71875 -125.53125 C 43.507812 -128.613281 50.300781 -130.15625 58.09375 -130.15625 C 65.894531 -130.15625 72.6875 -128.613281 78.46875 -125.53125 C 84.25 -122.445312 89.148438 -118.421875 93.171875 -113.453125 C 97.203125 -108.484375 100.410156 -103.046875 102.796875 -97.140625 C 105.191406 -91.234375 106.921875 -85.351562 107.984375 -79.5 C 109.054688 -73.65625 109.59375 -68.40625 109.59375 -63.75 C 109.59375 -58.34375 108.992188 -52.648438 107.796875 -46.671875 C 106.597656 -40.703125 104.710938 -34.828125 102.140625 -29.046875 C 99.566406 -23.265625 96.265625 -18.015625 92.234375 -13.296875 C 88.210938 -8.578125 83.367188 -4.800781 77.703125 -1.96875 C 72.046875 0.851562 65.507812 2.265625 58.09375 2.265625 Z M 58.09375 2.265625 "/></g></g></g><g fill="#000000" fill-opacity="1"><g transform="translate(946.411907, 467.873721)"><g><path d="M 85.640625 -25.65625 L 85.640625 0 L 11.3125 0 L 11.3125 -128.265625 L 85.640625 -128.265625 L 85.640625 -102.609375 L 39.609375 -102.609375 L 39.609375 -77.140625 L 83.75 -77.140625 L 83.75 -51.5 L 39.609375 -51.5 L 39.609375 -25.65625 Z M 85.640625 -25.65625 "/></g></g></g><g fill="#000000" fill-opacity="1"><g transform="translate(1081.088193, 467.873721)"><g><path d="M 112.046875 0 L 83.75 0 L 39.609375 -79.984375 L 39.609375 0 L 11.3125 0 L 11.3125 -128.265625 L 39.609375 -128.265625 L 83.75 -48.28125 L 83.75 -128.265625 L 112.046875 -128.265625 Z M 112.046875 0 "/></g></g></g></svg>